0
SECTION
2
ENTITIES
0
POLYLINE
8
CUT
66
1
70
1
0
VERTEX
8
CUT
10
6.000
20
6.000
0
VERTEX
8
CUT
10
16.610
20
6.000
0
VERTEX
8
CUT
10
16.610
20
9.000
0
VERTEX
8
CUT
10
24.221
20
9.000
0
VERTEX
8
CUT
10
24.221
20
6.000
0
VERTEX
8
CUT
10
31.831
20
6.000
0
VERTEX
8
CUT
10
31.831
20
9.000
0
VERTEX
8
CUT
10
39.442
20
9.000
0
VERTEX
8
CUT
10
39.442
20
6.000
0
VERTEX
8
CUT
10
47.052
20
6.000
0
VERTEX
8
CUT
10
47.052
20
9.000
0
VERTEX
8
CUT
10
54.663
20
9.000
0
VERTEX
8
CUT
10
54.663
20
6.000
0
VERTEX
8
CUT
10
62.273
20
6.000
0
VERTEX
8
CUT
10
62.273
20
9.000
0
VERTEX
8
CUT
10
69.884
20
9.000
0
VERTEX
8
CUT
10
69.884
20
6.000
0
VERTEX
8
CUT
10
77.494
20
6.000
0
VERTEX
8
CUT
10
77.494
20
9.000
0
VERTEX
8
CUT
10
85.105
20
9.000
0
VERTEX
8
CUT
10
85.105
20
6.000
0
VERTEX
8
CUT
10
92.715
20
6.000
0
VERTEX
8
CUT
10
92.715
20
9.000
0
VERTEX
8
CUT
10
100.326
20
9.000
0
VERTEX
8
CUT
10
100.326
20
6.000
0
VERTEX
8
CUT
10
107.936
20
6.000
0
VERTEX
8
CUT
10
107.936
20
9.000
0
VERTEX
8
CUT
10
115.547
20
9.000
0
VERTEX
8
CUT
10
115.547
20
6.000
0
VERTEX
8
CUT
10
123.157
20
6.000
0
VERTEX
8
CUT
10
123.157
20
9.000
0
VERTEX
8
CUT
10
130.768
20
9.000
0
VERTEX
8
CUT
10
130.768
20
6.000
0
VERTEX
8
CUT
10
138.378
20
6.000
0
VERTEX
8
CUT
10
138.378
20
9.000
0
VERTEX
8
CUT
10
145.989
20
9.000
0
VERTEX
8
CUT
10
145.989
20
6.000
0
VERTEX
8
CUT
10
153.599
20
6.000
0
VERTEX
8
CUT
10
153.599
20
9.000
0
VERTEX
8
CUT
10
161.210
20
9.000
0
VERTEX
8
CUT
10
161.210
20
6.000
0
VERTEX
8
CUT
10
168.820
20
6.000
0
VERTEX
8
CUT
10
168.820
20
9.000
0
VERTEX
8
CUT
10
176.430
20
9.000
0
VERTEX
8
CUT
10
176.430
20
6.000
0
VERTEX
8
CUT
10
184.041
20
6.000
0
VERTEX
8
CUT
10
184.041
20
9.000
0
VERTEX
8
CUT
10
191.651
20
9.000
0
VERTEX
8
CUT
10
191.651
20
6.000
0
VERTEX
8
CUT
10
199.262
20
6.000
0
VERTEX
8
CUT
10
199.262
20
9.000
0
VERTEX
8
CUT
10
206.872
20
9.000
0
VERTEX
8
CUT
10
206.872
20
6.000
0
VERTEX
8
CUT
10
217.483
20
6.000
0
VERTEX
8
CUT
10
217.483
20
13.462
0
VERTEX
8
CUT
10
214.483
20
13.462
0
VERTEX
8
CUT
10
214.483
20
20.923
0
VERTEX
8
CUT
10
217.483
20
20.923
0
VERTEX
8
CUT
10
217.483
20
28.385
0
VERTEX
8
CUT
10
214.483
20
28.385
0
VERTEX
8
CUT
10
214.483
20
35.846
0
VERTEX
8
CUT
10
217.483
20
35.846
0
VERTEX
8
CUT
10
217.483
20
43.308
0
VERTEX
8
CUT
10
214.483
20
43.308
0
VERTEX
8
CUT
10
214.483
20
50.769
0
VERTEX
8
CUT
10
217.483
20
50.769
0
VERTEX
8
CUT
10
217.483
20
58.231
0
VERTEX
8
CUT
10
214.483
20
58.231
0
VERTEX
8
CUT
10
214.483
20
65.692
0
VERTEX
8
CUT
10
217.483
20
65.692
0
VERTEX
8
CUT
10
217.483
20
73.154
0
VERTEX
8
CUT
10
214.483
20
73.154
0
VERTEX
8
CUT
10
214.483
20
80.615
0
VERTEX
8
CUT
10
217.483
20
80.615
0
VERTEX
8
CUT
10
217.483
20
88.077
0
VERTEX
8
CUT
10
214.483
20
88.077
0
VERTEX
8
CUT
10
214.483
20
95.538
0
VERTEX
8
CUT
10
217.483
20
95.538
0
VERTEX
8
CUT
10
217.483
20
103.000
0
VERTEX
8
CUT
10
6.000
20
103.000
0
VERTEX
8
CUT
10
6.000
20
95.538
0
VERTEX
8
CUT
10
9.000
20
95.538
0
VERTEX
8
CUT
10
9.000
20
88.077
0
VERTEX
8
CUT
10
6.000
20
88.077
0
VERTEX
8
CUT
10
6.000
20
80.615
0
VERTEX
8
CUT
10
9.000
20
80.615
0
VERTEX
8
CUT
10
9.000
20
73.154
0
VERTEX
8
CUT
10
6.000
20
73.154
0
VERTEX
8
CUT
10
6.000
20
65.692
0
VERTEX
8
CUT
10
9.000
20
65.692
0
VERTEX
8
CUT
10
9.000
20
58.231
0
VERTEX
8
CUT
10
6.000
20
58.231
0
VERTEX
8
CUT
10
6.000
20
50.769
0
VERTEX
8
CUT
10
9.000
20
50.769
0
VERTEX
8
CUT
10
9.000
20
43.308
0
VERTEX
8
CUT
10
6.000
20
43.308
0
VERTEX
8
CUT
10
6.000
20
35.846
0
VERTEX
8
CUT
10
9.000
20
35.846
0
VERTEX
8
CUT
10
9.000
20
28.385
0
VERTEX
8
CUT
10
6.000
20
28.385
0
VERTEX
8
CUT
10
6.000
20
20.923
0
VERTEX
8
CUT
10
9.000
20
20.923
0
VERTEX
8
CUT
10
9.000
20
13.462
0
VERTEX
8
CUT
10
6.000
20
13.462
0
SEQEND
0
POLYLINE
8
CUT
66
1
70
1
0
VERTEX
8
CUT
10
6.000
20
109.000
0
VERTEX
8
CUT
10
16.610
20
109.000
0
VERTEX
8
CUT
10
16.610
20
112.000
0
VERTEX
8
CUT
10
24.221
20
112.000
0
VERTEX
8
CUT
10
24.221
20
109.000
0
VERTEX
8
CUT
10
31.831
20
109.000
0
VERTEX
8
CUT
10
31.831
20
112.000
0
VERTEX
8
CUT
10
39.442
20
112.000
0
VERTEX
8
CUT
10
39.442
20
109.000
0
VERTEX
8
CUT
10
47.052
20
109.000
0
VERTEX
8
CUT
10
47.052
20
112.000
0
VERTEX
8
CUT
10
54.663
20
112.000
0
VERTEX
8
CUT
10
54.663
20
109.000
0
VERTEX
8
CUT
10
62.273
20
109.000
0
VERTEX
8
CUT
10
62.273
20
112.000
0
VERTEX
8
CUT
10
69.884
20
112.000
0
VERTEX
8
CUT
10
69.884
20
109.000
0
VERTEX
8
CUT
10
77.494
20
109.000
0
VERTEX
8
CUT
10
77.494
20
112.000
0
VERTEX
8
CUT
10
85.105
20
112.000
0
VERTEX
8
CUT
10
85.105
20
109.000
0
VERTEX
8
CUT
10
92.715
20
109.000
0
VERTEX
8
CUT
10
92.715
20
112.000
0
VERTEX
8
CUT
10
100.326
20
112.000
0
VERTEX
8
CUT
10
100.326
20
109.000
0
VERTEX
8
CUT
10
107.936
20
109.000
0
VERTEX
8
CUT
10
107.936
20
112.000
0
VERTEX
8
CUT
10
115.547
20
112.000
0
VERTEX
8
CUT
10
115.547
20
109.000
0
VERTEX
8
CUT
10
123.157
20
109.000
0
VERTEX
8
CUT
10
123.157
20
112.000
0
VERTEX
8
CUT
10
130.768
20
112.000
0
VERTEX
8
CUT
10
130.768
20
109.000
0
VERTEX
8
CUT
10
138.378
20
109.000
0
VERTEX
8
CUT
10
138.378
20
112.000
0
VERTEX
8
CUT
10
145.989
20
112.000
0
VERTEX
8
CUT
10
145.989
20
109.000
0
VERTEX
8
CUT
10
153.599
20
109.000
0
VERTEX
8
CUT
10
153.599
20
112.000
0
VERTEX
8
CUT
10
161.210
20
112.000
0
VERTEX
8
CUT
10
161.210
20
109.000
0
VERTEX
8
CUT
10
168.820
20
109.000
0
VERTEX
8
CUT
10
168.820
20
112.000
0
VERTEX
8
CUT
10
176.430
20
112.000
0
VERTEX
8
CUT
10
176.430
20
109.000
0
VERTEX
8
CUT
10
184.041
20
109.000
0
VERTEX
8
CUT
10
184.041
20
112.000
0
VERTEX
8
CUT
10
191.651
20
112.000
0
VERTEX
8
CUT
10
191.651
20
109.000
0
VERTEX
8
CUT
10
199.262
20
109.000
0
VERTEX
8
CUT
10
199.262
20
112.000
0
VERTEX
8
CUT
10
206.872
20
112.000
0
VERTEX
8
CUT
10
206.872
20
109.000
0
VERTEX
8
CUT
10
217.483
20
109.000
0
VERTEX
8
CUT
10
217.483
20
116.462
0
VERTEX
8
CUT
10
214.483
20
116.462
0
VERTEX
8
CUT
10
214.483
20
123.923
0
VERTEX
8
CUT
10
217.483
20
123.923
0
VERTEX
8
CUT
10
217.483
20
131.385
0
VERTEX
8
CUT
10
214.483
20
131.385
0
VERTEX
8
CUT
10
214.483
20
138.846
0
VERTEX
8
CUT
10
217.483
20
138.846
0
VERTEX
8
CUT
10
217.483
20
146.308
0
VERTEX
8
CUT
10
214.483
20
146.308
0
VERTEX
8
CUT
10
214.483
20
153.769
0
VERTEX
8
CUT
10
217.483
20
153.769
0
VERTEX
8
CUT
10
217.483
20
161.231
0
VERTEX
8
CUT
10
214.483
20
161.231
0
VERTEX
8
CUT
10
214.483
20
168.692
0
VERTEX
8
CUT
10
217.483
20
168.692
0
VERTEX
8
CUT
10
217.483
20
176.154
0
VERTEX
8
CUT
10
214.483
20
176.154
0
VERTEX
8
CUT
10
214.483
20
183.615
0
VERTEX
8
CUT
10
217.483
20
183.615
0
VERTEX
8
CUT
10
217.483
20
191.077
0
VERTEX
8
CUT
10
214.483
20
191.077
0
VERTEX
8
CUT
10
214.483
20
198.538
0
VERTEX
8
CUT
10
217.483
20
198.538
0
VERTEX
8
CUT
10
217.483
20
206.000
0
VERTEX
8
CUT
10
6.000
20
206.000
0
VERTEX
8
CUT
10
6.000
20
198.538
0
VERTEX
8
CUT
10
9.000
20
198.538
0
VERTEX
8
CUT
10
9.000
20
191.077
0
VERTEX
8
CUT
10
6.000
20
191.077
0
VERTEX
8
CUT
10
6.000
20
183.615
0
VERTEX
8
CUT
10
9.000
20
183.615
0
VERTEX
8
CUT
10
9.000
20
176.154
0
VERTEX
8
CUT
10
6.000
20
176.154
0
VERTEX
8
CUT
10
6.000
20
168.692
0
VERTEX
8
CUT
10
9.000
20
168.692
0
VERTEX
8
CUT
10
9.000
20
161.231
0
VERTEX
8
CUT
10
6.000
20
161.231
0
VERTEX
8
CUT
10
6.000
20
153.769
0
VERTEX
8
CUT
10
9.000
20
153.769
0
VERTEX
8
CUT
10
9.000
20
146.308
0
VERTEX
8
CUT
10
6.000
20
146.308
0
VERTEX
8
CUT
10
6.000
20
138.846
0
VERTEX
8
CUT
10
9.000
20
138.846
0
VERTEX
8
CUT
10
9.000
20
131.385
0
VERTEX
8
CUT
10
6.000
20
131.385
0
VERTEX
8
CUT
10
6.000
20
123.923
0
VERTEX
8
CUT
10
9.000
20
123.923
0
VERTEX
8
CUT
10
9.000
20
116.462
0
VERTEX
8
CUT
10
6.000
20
116.462
0
SEQEND
0
POLYLINE
8
CUT
66
1
70
1
0
VERTEX
8
CUT
10
226.483
20
109.000
0
VERTEX
8
CUT
10
233.922
20
109.000
0
VERTEX
8
CUT
10
233.922
20
112.000
0
VERTEX
8
CUT
10
241.360
20
112.000
0
VERTEX
8
CUT
10
241.360
20
109.000
0
VERTEX
8
CUT
10
248.799
20
109.000
0
VERTEX
8
CUT
10
248.799
20
112.000
0
VERTEX
8
CUT
10
256.238
20
112.000
0
VERTEX
8
CUT
10
256.238
20
109.000
0
VERTEX
8
CUT
10
263.676
20
109.000
0
VERTEX
8
CUT
10
263.676
20
112.000
0
VERTEX
8
CUT
10
271.115
20
112.000
0
VERTEX
8
CUT
10
271.115
20
109.000
0
VERTEX
8
CUT
10
278.554
20
109.000
0
VERTEX
8
CUT
10
278.554
20
112.000
0
VERTEX
8
CUT
10
285.993
20
112.000
0
VERTEX
8
CUT
10
285.993
20
109.000
0
VERTEX
8
CUT
10
293.431
20
109.000
0
VERTEX
8
CUT
10
293.431
20
112.000
0
VERTEX
8
CUT
10
300.870
20
112.000
0
VERTEX
8
CUT
10
300.870
20
109.000
0
VERTEX
8
CUT
10
308.309
20
109.000
0
VERTEX
8
CUT
10
308.309
20
112.000
0
VERTEX
8
CUT
10
315.748
20
112.000
0
VERTEX
8
CUT
10
315.748
20
109.000
0
VERTEX
8
CUT
10
323.186
20
109.000
0
VERTEX
8
CUT
10
323.186
20
116.462
0
VERTEX
8
CUT
10
326.186
20
116.462
0
VERTEX
8
CUT
10
326.186
20
123.923
0
VERTEX
8
CUT
10
323.186
20
123.923
0
VERTEX
8
CUT
10
323.186
20
131.385
0
VERTEX
8
CUT
10
326.186
20
131.385
0
VERTEX
8
CUT
10
326.186
20
138.846
0
VERTEX
8
CUT
10
323.186
20
138.846
0
VERTEX
8
CUT
10
323.186
20
146.308
0
VERTEX
8
CUT
10
326.186
20
146.308
0
VERTEX
8
CUT
10
326.186
20
153.769
0
VERTEX
8
CUT
10
323.186
20
153.769
0
VERTEX
8
CUT
10
323.186
20
161.231
0
VERTEX
8
CUT
10
326.186
20
161.231
0
VERTEX
8
CUT
10
326.186
20
168.692
0
VERTEX
8
CUT
10
323.186
20
168.692
0
VERTEX
8
CUT
10
323.186
20
176.154
0
VERTEX
8
CUT
10
326.186
20
176.154
0
VERTEX
8
CUT
10
326.186
20
183.615
0
VERTEX
8
CUT
10
323.186
20
183.615
0
VERTEX
8
CUT
10
323.186
20
191.077
0
VERTEX
8
CUT
10
326.186
20
191.077
0
VERTEX
8
CUT
10
326.186
20
198.538
0
VERTEX
8
CUT
10
323.186
20
198.538
0
VERTEX
8
CUT
10
323.186
20
206.000
0
VERTEX
8
CUT
10
226.483
20
206.000
0
VERTEX
8
CUT
10
226.483
20
198.538
0
VERTEX
8
CUT
10
223.483
20
198.538
0
VERTEX
8
CUT
10
223.483
20
191.077
0
VERTEX
8
CUT
10
226.483
20
191.077
0
VERTEX
8
CUT
10
226.483
20
183.615
0
VERTEX
8
CUT
10
223.483
20
183.615
0
VERTEX
8
CUT
10
223.483
20
176.154
0
VERTEX
8
CUT
10
226.483
20
176.154
0
VERTEX
8
CUT
10
226.483
20
168.692
0
VERTEX
8
CUT
10
223.483
20
168.692
0
VERTEX
8
CUT
10
223.483
20
161.231
0
VERTEX
8
CUT
10
226.483
20
161.231
0
VERTEX
8
CUT
10
226.483
20
153.769
0
VERTEX
8
CUT
10
223.483
20
153.769
0
VERTEX
8
CUT
10
223.483
20
146.308
0
VERTEX
8
CUT
10
226.483
20
146.308
0
VERTEX
8
CUT
10
226.483
20
138.846
0
VERTEX
8
CUT
10
223.483
20
138.846
0
VERTEX
8
CUT
10
223.483
20
131.385
0
VERTEX
8
CUT
10
226.483
20
131.385
0
VERTEX
8
CUT
10
226.483
20
123.923
0
VERTEX
8
CUT
10
223.483
20
123.923
0
VERTEX
8
CUT
10
223.483
20
116.462
0
VERTEX
8
CUT
10
226.483
20
116.462
0
SEQEND
0
POLYLINE
8
CUT
66
1
70
1
0
VERTEX
8
CUT
10
9.000
20
212.000
0
VERTEX
8
CUT
10
16.439
20
212.000
0
VERTEX
8
CUT
10
16.439
20
215.000
0
VERTEX
8
CUT
10
23.877
20
215.000
0
VERTEX
8
CUT
10
23.877
20
212.000
0
VERTEX
8
CUT
10
31.316
20
212.000
0
VERTEX
8
CUT
10
31.316
20
215.000
0
VERTEX
8
CUT
10
38.755
20
215.000
0
VERTEX
8
CUT
10
38.755
20
212.000
0
VERTEX
8
CUT
10
46.194
20
212.000
0
VERTEX
8
CUT
10
46.194
20
215.000
0
VERTEX
8
CUT
10
53.632
20
215.000
0
VERTEX
8
CUT
10
53.632
20
212.000
0
VERTEX
8
CUT
10
61.071
20
212.000
0
VERTEX
8
CUT
10
61.071
20
215.000
0
VERTEX
8
CUT
10
68.510
20
215.000
0
VERTEX
8
CUT
10
68.510
20
212.000
0
VERTEX
8
CUT
10
75.949
20
212.000
0
VERTEX
8
CUT
10
75.949
20
215.000
0
VERTEX
8
CUT
10
83.387
20
215.000
0
VERTEX
8
CUT
10
83.387
20
212.000
0
VERTEX
8
CUT
10
90.826
20
212.000
0
VERTEX
8
CUT
10
90.826
20
215.000
0
VERTEX
8
CUT
10
98.265
20
215.000
0
VERTEX
8
CUT
10
98.265
20
212.000
0
VERTEX
8
CUT
10
105.703
20
212.000
0
VERTEX
8
CUT
10
105.703
20
219.462
0
VERTEX
8
CUT
10
108.703
20
219.462
0
VERTEX
8
CUT
10
108.703
20
226.923
0
VERTEX
8
CUT
10
105.703
20
226.923
0
VERTEX
8
CUT
10
105.703
20
234.385
0
VERTEX
8
CUT
10
108.703
20
234.385
0
VERTEX
8
CUT
10
108.703
20
241.846
0
VERTEX
8
CUT
10
105.703
20
241.846
0
VERTEX
8
CUT
10
105.703
20
249.308
0
VERTEX
8
CUT
10
108.703
20
249.308
0
VERTEX
8
CUT
10
108.703
20
256.769
0
VERTEX
8
CUT
10
105.703
20
256.769
0
VERTEX
8
CUT
10
105.703
20
264.231
0
VERTEX
8
CUT
10
108.703
20
264.231
0
VERTEX
8
CUT
10
108.703
20
271.692
0
VERTEX
8
CUT
10
105.703
20
271.692
0
VERTEX
8
CUT
10
105.703
20
279.154
0
VERTEX
8
CUT
10
108.703
20
279.154
0
VERTEX
8
CUT
10
108.703
20
286.615
0
VERTEX
8
CUT
10
105.703
20
286.615
0
VERTEX
8
CUT
10
105.703
20
294.077
0
VERTEX
8
CUT
10
108.703
20
294.077
0
VERTEX
8
CUT
10
108.703
20
301.538
0
VERTEX
8
CUT
10
105.703
20
301.538
0
VERTEX
8
CUT
10
105.703
20
309.000
0
VERTEX
8
CUT
10
9.000
20
309.000
0
VERTEX
8
CUT
10
9.000
20
301.538
0
VERTEX
8
CUT
10
6.000
20
301.538
0
VERTEX
8
CUT
10
6.000
20
294.077
0
VERTEX
8
CUT
10
9.000
20
294.077
0
VERTEX
8
CUT
10
9.000
20
286.615
0
VERTEX
8
CUT
10
6.000
20
286.615
0
VERTEX
8
CUT
10
6.000
20
279.154
0
VERTEX
8
CUT
10
9.000
20
279.154
0
VERTEX
8
CUT
10
9.000
20
271.692
0
VERTEX
8
CUT
10
6.000
20
271.692
0
VERTEX
8
CUT
10
6.000
20
264.231
0
VERTEX
8
CUT
10
9.000
20
264.231
0
VERTEX
8
CUT
10
9.000
20
256.769
0
VERTEX
8
CUT
10
6.000
20
256.769
0
VERTEX
8
CUT
10
6.000
20
249.308
0
VERTEX
8
CUT
10
9.000
20
249.308
0
VERTEX
8
CUT
10
9.000
20
241.846
0
VERTEX
8
CUT
10
6.000
20
241.846
0
VERTEX
8
CUT
10
6.000
20
234.385
0
VERTEX
8
CUT
10
9.000
20
234.385
0
VERTEX
8
CUT
10
9.000
20
226.923
0
VERTEX
8
CUT
10
6.000
20
226.923
0
VERTEX
8
CUT
10
6.000
20
219.462
0
VERTEX
8
CUT
10
9.000
20
219.462
0
SEQEND
0
POLYLINE
8
CUT
66
1
70
1
0
VERTEX
8
CUT
10
117.703
20
215.000
0
VERTEX
8
CUT
10
125.314
20
215.000
0
VERTEX
8
CUT
10
125.314
20
212.000
0
VERTEX
8
CUT
10
132.924
20
212.000
0
VERTEX
8
CUT
10
132.924
20
215.000
0
VERTEX
8
CUT
10
140.535
20
215.000
0
VERTEX
8
CUT
10
140.535
20
212.000
0
VERTEX
8
CUT
10
148.145
20
212.000
0
VERTEX
8
CUT
10
148.145
20
215.000
0
VERTEX
8
CUT
10
155.756
20
215.000
0
VERTEX
8
CUT
10
155.756
20
212.000
0
VERTEX
8
CUT
10
163.366
20
212.000
0
VERTEX
8
CUT
10
163.366
20
215.000
0
VERTEX
8
CUT
10
170.977
20
215.000
0
VERTEX
8
CUT
10
170.977
20
212.000
0
VERTEX
8
CUT
10
178.587
20
212.000
0
VERTEX
8
CUT
10
178.587
20
215.000
0
VERTEX
8
CUT
10
186.198
20
215.000
0
VERTEX
8
CUT
10
186.198
20
212.000
0
VERTEX
8
CUT
10
193.808
20
212.000
0
VERTEX
8
CUT
10
193.808
20
215.000
0
VERTEX
8
CUT
10
201.419
20
215.000
0
VERTEX
8
CUT
10
201.419
20
212.000
0
VERTEX
8
CUT
10
209.029
20
212.000
0
VERTEX
8
CUT
10
209.029
20
215.000
0
VERTEX
8
CUT
10
216.640
20
215.000
0
VERTEX
8
CUT
10
216.640
20
212.000
0
VERTEX
8
CUT
10
224.250
20
212.000
0
VERTEX
8
CUT
10
224.250
20
215.000
0
VERTEX
8
CUT
10
231.861
20
215.000
0
VERTEX
8
CUT
10
231.861
20
212.000
0
VERTEX
8
CUT
10
239.471
20
212.000
0
VERTEX
8
CUT
10
239.471
20
215.000
0
VERTEX
8
CUT
10
247.082
20
215.000
0
VERTEX
8
CUT
10
247.082
20
212.000
0
VERTEX
8
CUT
10
254.692
20
212.000
0
VERTEX
8
CUT
10
254.692
20
215.000
0
VERTEX
8
CUT
10
262.303
20
215.000
0
VERTEX
8
CUT
10
262.303
20
212.000
0
VERTEX
8
CUT
10
269.913
20
212.000
0
VERTEX
8
CUT
10
269.913
20
215.000
0
VERTEX
8
CUT
10
277.523
20
215.000
0
VERTEX
8
CUT
10
277.523
20
212.000
0
VERTEX
8
CUT
10
285.134
20
212.000
0
VERTEX
8
CUT
10
285.134
20
215.000
0
VERTEX
8
CUT
10
292.744
20
215.000
0
VERTEX
8
CUT
10
292.744
20
212.000
0
VERTEX
8
CUT
10
300.355
20
212.000
0
VERTEX
8
CUT
10
300.355
20
215.000
0
VERTEX
8
CUT
10
307.965
20
215.000
0
VERTEX
8
CUT
10
307.965
20
212.000
0
VERTEX
8
CUT
10
315.576
20
212.000
0
VERTEX
8
CUT
10
315.576
20
215.000
0
VERTEX
8
CUT
10
323.186
20
215.000
0
VERTEX
8
CUT
10
323.186
20
222.439
0
VERTEX
8
CUT
10
326.186
20
222.439
0
VERTEX
8
CUT
10
326.186
20
229.877
0
VERTEX
8
CUT
10
323.186
20
229.877
0
VERTEX
8
CUT
10
323.186
20
237.316
0
VERTEX
8
CUT
10
326.186
20
237.316
0
VERTEX
8
CUT
10
326.186
20
244.755
0
VERTEX
8
CUT
10
323.186
20
244.755
0
VERTEX
8
CUT
10
323.186
20
252.194
0
VERTEX
8
CUT
10
326.186
20
252.194
0
VERTEX
8
CUT
10
326.186
20
259.632
0
VERTEX
8
CUT
10
323.186
20
259.632
0
VERTEX
8
CUT
10
323.186
20
267.071
0
VERTEX
8
CUT
10
326.186
20
267.071
0
VERTEX
8
CUT
10
326.186
20
274.510
0
VERTEX
8
CUT
10
323.186
20
274.510
0
VERTEX
8
CUT
10
323.186
20
281.949
0
VERTEX
8
CUT
10
326.186
20
281.949
0
VERTEX
8
CUT
10
326.186
20
289.387
0
VERTEX
8
CUT
10
323.186
20
289.387
0
VERTEX
8
CUT
10
323.186
20
296.826
0
VERTEX
8
CUT
10
326.186
20
296.826
0
VERTEX
8
CUT
10
326.186
20
304.265
0
VERTEX
8
CUT
10
323.186
20
304.265
0
VERTEX
8
CUT
10
323.186
20
311.703
0
VERTEX
8
CUT
10
315.576
20
311.703
0
VERTEX
8
CUT
10
315.576
20
314.703
0
VERTEX
8
CUT
10
307.965
20
314.703
0
VERTEX
8
CUT
10
307.965
20
311.703
0
VERTEX
8
CUT
10
300.355
20
311.703
0
VERTEX
8
CUT
10
300.355
20
314.703
0
VERTEX
8
CUT
10
292.744
20
314.703
0
VERTEX
8
CUT
10
292.744
20
311.703
0
VERTEX
8
CUT
10
285.134
20
311.703
0
VERTEX
8
CUT
10
285.134
20
314.703
0
VERTEX
8
CUT
10
277.523
20
314.703
0
VERTEX
8
CUT
10
277.523
20
311.703
0
VERTEX
8
CUT
10
269.913
20
311.703
0
VERTEX
8
CUT
10
269.913
20
314.703
0
VERTEX
8
CUT
10
262.303
20
314.703
0
VERTEX
8
CUT
10
262.303
20
311.703
0
VERTEX
8
CUT
10
254.692
20
311.703
0
VERTEX
8
CUT
10
254.692
20
314.703
0
VERTEX
8
CUT
10
247.082
20
314.703
0
VERTEX
8
CUT
10
247.082
20
311.703
0
VERTEX
8
CUT
10
239.471
20
311.703
0
VERTEX
8
CUT
10
239.471
20
314.703
0
VERTEX
8
CUT
10
231.861
20
314.703
0
VERTEX
8
CUT
10
231.861
20
311.703
0
VERTEX
8
CUT
10
224.250
20
311.703
0
VERTEX
8
CUT
10
224.250
20
314.703
0
VERTEX
8
CUT
10
216.640
20
314.703
0
VERTEX
8
CUT
10
216.640
20
311.703
0
VERTEX
8
CUT
10
209.029
20
311.703
0
VERTEX
8
CUT
10
209.029
20
314.703
0
VERTEX
8
CUT
10
201.419
20
314.703
0
VERTEX
8
CUT
10
201.419
20
311.703
0
VERTEX
8
CUT
10
193.808
20
311.703
0
VERTEX
8
CUT
10
193.808
20
314.703
0
VERTEX
8
CUT
10
186.198
20
314.703
0
VERTEX
8
CUT
10
186.198
20
311.703
0
VERTEX
8
CUT
10
178.587
20
311.703
0
VERTEX
8
CUT
10
178.587
20
314.703
0
VERTEX
8
CUT
10
170.977
20
314.703
0
VERTEX
8
CUT
10
170.977
20
311.703
0
VERTEX
8
CUT
10
163.366
20
311.703
0
VERTEX
8
CUT
10
163.366
20
314.703
0
VERTEX
8
CUT
10
155.756
20
314.703
0
VERTEX
8
CUT
10
155.756
20
311.703
0
VERTEX
8
CUT
10
148.145
20
311.703
0
VERTEX
8
CUT
10
148.145
20
314.703
0
VERTEX
8
CUT
10
140.535
20
314.703
0
VERTEX
8
CUT
10
140.535
20
311.703
0
VERTEX
8
CUT
10
132.924
20
311.703
0
VERTEX
8
CUT
10
132.924
20
314.703
0
VERTEX
8
CUT
10
125.314
20
314.703
0
VERTEX
8
CUT
10
125.314
20
311.703
0
VERTEX
8
CUT
10
117.703
20
311.703
0
VERTEX
8
CUT
10
117.703
20
304.265
0
VERTEX
8
CUT
10
114.703
20
304.265
0
VERTEX
8
CUT
10
114.703
20
296.826
0
VERTEX
8
CUT
10
117.703
20
296.826
0
VERTEX
8
CUT
10
117.703
20
289.387
0
VERTEX
8
CUT
10
114.703
20
289.387
0
VERTEX
8
CUT
10
114.703
20
281.949
0
VERTEX
8
CUT
10
117.703
20
281.949
0
VERTEX
8
CUT
10
117.703
20
274.510
0
VERTEX
8
CUT
10
114.703
20
274.510
0
VERTEX
8
CUT
10
114.703
20
267.071
0
VERTEX
8
CUT
10
117.703
20
267.071
0
VERTEX
8
CUT
10
117.703
20
259.632
0
VERTEX
8
CUT
10
114.703
20
259.632
0
VERTEX
8
CUT
10
114.703
20
252.194
0
VERTEX
8
CUT
10
117.703
20
252.194
0
VERTEX
8
CUT
10
117.703
20
244.755
0
VERTEX
8
CUT
10
114.703
20
244.755
0
VERTEX
8
CUT
10
114.703
20
237.316
0
VERTEX
8
CUT
10
117.703
20
237.316
0
VERTEX
8
CUT
10
117.703
20
229.877
0
VERTEX
8
CUT
10
114.703
20
229.877
0
VERTEX
8
CUT
10
114.703
20
222.439
0
VERTEX
8
CUT
10
117.703
20
222.439
0
SEQEND
0
ENDSEC
0
EOF