0
SECTION
2
ENTITIES
0
POLYLINE
8
CUT
66
1
70
1
0
VERTEX
8
CUT
10
6.000
20
6.000
0
VERTEX
8
CUT
10
16.011
20
6.000
0
VERTEX
8
CUT
10
16.011
20
9.000
0
VERTEX
8
CUT
10
23.021
20
9.000
0
VERTEX
8
CUT
10
23.021
20
6.000
0
VERTEX
8
CUT
10
30.032
20
6.000
0
VERTEX
8
CUT
10
30.032
20
9.000
0
VERTEX
8
CUT
10
37.042
20
9.000
0
VERTEX
8
CUT
10
37.042
20
6.000
0
VERTEX
8
CUT
10
44.053
20
6.000
0
VERTEX
8
CUT
10
44.053
20
9.000
0
VERTEX
8
CUT
10
51.063
20
9.000
0
VERTEX
8
CUT
10
51.063
20
6.000
0
VERTEX
8
CUT
10
58.074
20
6.000
0
VERTEX
8
CUT
10
58.074
20
9.000
0
VERTEX
8
CUT
10
65.084
20
9.000
0
VERTEX
8
CUT
10
65.084
20
6.000
0
VERTEX
8
CUT
10
72.095
20
6.000
0
VERTEX
8
CUT
10
72.095
20
9.000
0
VERTEX
8
CUT
10
79.105
20
9.000
0
VERTEX
8
CUT
10
79.105
20
6.000
0
VERTEX
8
CUT
10
86.116
20
6.000
0
VERTEX
8
CUT
10
86.116
20
9.000
0
VERTEX
8
CUT
10
93.126
20
9.000
0
VERTEX
8
CUT
10
93.126
20
6.000
0
VERTEX
8
CUT
10
100.137
20
6.000
0
VERTEX
8
CUT
10
100.137
20
9.000
0
VERTEX
8
CUT
10
107.147
20
9.000
0
VERTEX
8
CUT
10
107.147
20
6.000
0
VERTEX
8
CUT
10
117.158
20
6.000
0
VERTEX
8
CUT
10
117.158
20
13.818
0
VERTEX
8
CUT
10
114.158
20
13.818
0
VERTEX
8
CUT
10
114.158
20
21.636
0
VERTEX
8
CUT
10
117.158
20
21.636
0
VERTEX
8
CUT
10
117.158
20
29.455
0
VERTEX
8
CUT
10
114.158
20
29.455
0
VERTEX
8
CUT
10
114.158
20
37.273
0
VERTEX
8
CUT
10
117.158
20
37.273
0
VERTEX
8
CUT
10
117.158
20
45.091
0
VERTEX
8
CUT
10
114.158
20
45.091
0
VERTEX
8
CUT
10
114.158
20
52.909
0
VERTEX
8
CUT
10
117.158
20
52.909
0
VERTEX
8
CUT
10
117.158
20
60.727
0
VERTEX
8
CUT
10
114.158
20
60.727
0
VERTEX
8
CUT
10
114.158
20
68.545
0
VERTEX
8
CUT
10
117.158
20
68.545
0
VERTEX
8
CUT
10
117.158
20
76.364
0
VERTEX
8
CUT
10
114.158
20
76.364
0
VERTEX
8
CUT
10
114.158
20
84.182
0
VERTEX
8
CUT
10
117.158
20
84.182
0
VERTEX
8
CUT
10
117.158
20
92.000
0
VERTEX
8
CUT
10
6.000
20
92.000
0
VERTEX
8
CUT
10
6.000
20
84.182
0
VERTEX
8
CUT
10
9.000
20
84.182
0
VERTEX
8
CUT
10
9.000
20
76.364
0
VERTEX
8
CUT
10
6.000
20
76.364
0
VERTEX
8
CUT
10
6.000
20
68.545
0
VERTEX
8
CUT
10
9.000
20
68.545
0
VERTEX
8
CUT
10
9.000
20
60.727
0
VERTEX
8
CUT
10
6.000
20
60.727
0
VERTEX
8
CUT
10
6.000
20
52.909
0
VERTEX
8
CUT
10
9.000
20
52.909
0
VERTEX
8
CUT
10
9.000
20
45.091
0
VERTEX
8
CUT
10
6.000
20
45.091
0
VERTEX
8
CUT
10
6.000
20
37.273
0
VERTEX
8
CUT
10
9.000
20
37.273
0
VERTEX
8
CUT
10
9.000
20
29.455
0
VERTEX
8
CUT
10
6.000
20
29.455
0
VERTEX
8
CUT
10
6.000
20
21.636
0
VERTEX
8
CUT
10
9.000
20
21.636
0
VERTEX
8
CUT
10
9.000
20
13.818
0
VERTEX
8
CUT
10
6.000
20
13.818
0
SEQEND
0
POLYLINE
8
CUT
66
1
70
1
0
VERTEX
8
CUT
10
123.158
20
6.000
0
VERTEX
8
CUT
10
133.168
20
6.000
0
VERTEX
8
CUT
10
133.168
20
9.000
0
VERTEX
8
CUT
10
140.179
20
9.000
0
VERTEX
8
CUT
10
140.179
20
6.000
0
VERTEX
8
CUT
10
147.189
20
6.000
0
VERTEX
8
CUT
10
147.189
20
9.000
0
VERTEX
8
CUT
10
154.200
20
9.000
0
VERTEX
8
CUT
10
154.200
20
6.000
0
VERTEX
8
CUT
10
161.210
20
6.000
0
VERTEX
8
CUT
10
161.210
20
9.000
0
VERTEX
8
CUT
10
168.221
20
9.000
0
VERTEX
8
CUT
10
168.221
20
6.000
0
VERTEX
8
CUT
10
175.231
20
6.000
0
VERTEX
8
CUT
10
175.231
20
9.000
0
VERTEX
8
CUT
10
182.242
20
9.000
0
VERTEX
8
CUT
10
182.242
20
6.000
0
VERTEX
8
CUT
10
189.252
20
6.000
0
VERTEX
8
CUT
10
189.252
20
9.000
0
VERTEX
8
CUT
10
196.263
20
9.000
0
VERTEX
8
CUT
10
196.263
20
6.000
0
VERTEX
8
CUT
10
203.273
20
6.000
0
VERTEX
8
CUT
10
203.273
20
9.000
0
VERTEX
8
CUT
10
210.284
20
9.000
0
VERTEX
8
CUT
10
210.284
20
6.000
0
VERTEX
8
CUT
10
217.294
20
6.000
0
VERTEX
8
CUT
10
217.294
20
9.000
0
VERTEX
8
CUT
10
224.305
20
9.000
0
VERTEX
8
CUT
10
224.305
20
6.000
0
VERTEX
8
CUT
10
234.315
20
6.000
0
VERTEX
8
CUT
10
234.315
20
13.818
0
VERTEX
8
CUT
10
231.315
20
13.818
0
VERTEX
8
CUT
10
231.315
20
21.636
0
VERTEX
8
CUT
10
234.315
20
21.636
0
VERTEX
8
CUT
10
234.315
20
29.455
0
VERTEX
8
CUT
10
231.315
20
29.455
0
VERTEX
8
CUT
10
231.315
20
37.273
0
VERTEX
8
CUT
10
234.315
20
37.273
0
VERTEX
8
CUT
10
234.315
20
45.091
0
VERTEX
8
CUT
10
231.315
20
45.091
0
VERTEX
8
CUT
10
231.315
20
52.909
0
VERTEX
8
CUT
10
234.315
20
52.909
0
VERTEX
8
CUT
10
234.315
20
60.727
0
VERTEX
8
CUT
10
231.315
20
60.727
0
VERTEX
8
CUT
10
231.315
20
68.545
0
VERTEX
8
CUT
10
234.315
20
68.545
0
VERTEX
8
CUT
10
234.315
20
76.364
0
VERTEX
8
CUT
10
231.315
20
76.364
0
VERTEX
8
CUT
10
231.315
20
84.182
0
VERTEX
8
CUT
10
234.315
20
84.182
0
VERTEX
8
CUT
10
234.315
20
92.000
0
VERTEX
8
CUT
10
123.158
20
92.000
0
VERTEX
8
CUT
10
123.158
20
84.182
0
VERTEX
8
CUT
10
126.158
20
84.182
0
VERTEX
8
CUT
10
126.158
20
76.364
0
VERTEX
8
CUT
10
123.158
20
76.364
0
VERTEX
8
CUT
10
123.158
20
68.545
0
VERTEX
8
CUT
10
126.158
20
68.545
0
VERTEX
8
CUT
10
126.158
20
60.727
0
VERTEX
8
CUT
10
123.158
20
60.727
0
VERTEX
8
CUT
10
123.158
20
52.909
0
VERTEX
8
CUT
10
126.158
20
52.909
0
VERTEX
8
CUT
10
126.158
20
45.091
0
VERTEX
8
CUT
10
123.158
20
45.091
0
VERTEX
8
CUT
10
123.158
20
37.273
0
VERTEX
8
CUT
10
126.158
20
37.273
0
VERTEX
8
CUT
10
126.158
20
29.455
0
VERTEX
8
CUT
10
123.158
20
29.455
0
VERTEX
8
CUT
10
123.158
20
21.636
0
VERTEX
8
CUT
10
126.158
20
21.636
0
VERTEX
8
CUT
10
126.158
20
13.818
0
VERTEX
8
CUT
10
123.158
20
13.818
0
SEQEND
0
POLYLINE
8
CUT
66
1
70
1
0
VERTEX
8
CUT
10
243.315
20
6.000
0
VERTEX
8
CUT
10
250.556
20
6.000
0
VERTEX
8
CUT
10
250.556
20
9.000
0
VERTEX
8
CUT
10
257.797
20
9.000
0
VERTEX
8
CUT
10
257.797
20
6.000
0
VERTEX
8
CUT
10
265.037
20
6.000
0
VERTEX
8
CUT
10
265.037
20
9.000
0
VERTEX
8
CUT
10
272.278
20
9.000
0
VERTEX
8
CUT
10
272.278
20
6.000
0
VERTEX
8
CUT
10
279.519
20
6.000
0
VERTEX
8
CUT
10
279.519
20
9.000
0
VERTEX
8
CUT
10
286.760
20
9.000
0
VERTEX
8
CUT
10
286.760
20
6.000
0
VERTEX
8
CUT
10
294.000
20
6.000
0
VERTEX
8
CUT
10
294.000
20
9.000
0
VERTEX
8
CUT
10
301.241
20
9.000
0
VERTEX
8
CUT
10
301.241
20
6.000
0
VERTEX
8
CUT
10
308.482
20
6.000
0
VERTEX
8
CUT
10
308.482
20
9.000
0
VERTEX
8
CUT
10
315.723
20
9.000
0
VERTEX
8
CUT
10
315.723
20
6.000
0
VERTEX
8
CUT
10
322.963
20
6.000
0
VERTEX
8
CUT
10
322.963
20
9.000
0
VERTEX
8
CUT
10
330.204
20
9.000
0
VERTEX
8
CUT
10
330.204
20
6.000
0
VERTEX
8
CUT
10
337.445
20
6.000
0
VERTEX
8
CUT
10
337.445
20
13.818
0
VERTEX
8
CUT
10
340.445
20
13.818
0
VERTEX
8
CUT
10
340.445
20
21.636
0
VERTEX
8
CUT
10
337.445
20
21.636
0
VERTEX
8
CUT
10
337.445
20
29.455
0
VERTEX
8
CUT
10
340.445
20
29.455
0
VERTEX
8
CUT
10
340.445
20
37.273
0
VERTEX
8
CUT
10
337.445
20
37.273
0
VERTEX
8
CUT
10
337.445
20
45.091
0
VERTEX
8
CUT
10
340.445
20
45.091
0
VERTEX
8
CUT
10
340.445
20
52.909
0
VERTEX
8
CUT
10
337.445
20
52.909
0
VERTEX
8
CUT
10
337.445
20
60.727
0
VERTEX
8
CUT
10
340.445
20
60.727
0
VERTEX
8
CUT
10
340.445
20
68.545
0
VERTEX
8
CUT
10
337.445
20
68.545
0
VERTEX
8
CUT
10
337.445
20
76.364
0
VERTEX
8
CUT
10
340.445
20
76.364
0
VERTEX
8
CUT
10
340.445
20
84.182
0
VERTEX
8
CUT
10
337.445
20
84.182
0
VERTEX
8
CUT
10
337.445
20
92.000
0
VERTEX
8
CUT
10
243.315
20
92.000
0
VERTEX
8
CUT
10
243.315
20
84.182
0
VERTEX
8
CUT
10
240.315
20
84.182
0
VERTEX
8
CUT
10
240.315
20
76.364
0
VERTEX
8
CUT
10
243.315
20
76.364
0
VERTEX
8
CUT
10
243.315
20
68.545
0
VERTEX
8
CUT
10
240.315
20
68.545
0
VERTEX
8
CUT
10
240.315
20
60.727
0
VERTEX
8
CUT
10
243.315
20
60.727
0
VERTEX
8
CUT
10
243.315
20
52.909
0
VERTEX
8
CUT
10
240.315
20
52.909
0
VERTEX
8
CUT
10
240.315
20
45.091
0
VERTEX
8
CUT
10
243.315
20
45.091
0
VERTEX
8
CUT
10
243.315
20
37.273
0
VERTEX
8
CUT
10
240.315
20
37.273
0
VERTEX
8
CUT
10
240.315
20
29.455
0
VERTEX
8
CUT
10
243.315
20
29.455
0
VERTEX
8
CUT
10
243.315
20
21.636
0
VERTEX
8
CUT
10
240.315
20
21.636
0
VERTEX
8
CUT
10
240.315
20
13.818
0
VERTEX
8
CUT
10
243.315
20
13.818
0
SEQEND
0
POLYLINE
8
CUT
66
1
70
1
0
VERTEX
8
CUT
10
9.000
20
98.000
0
VERTEX
8
CUT
10
16.241
20
98.000
0
VERTEX
8
CUT
10
16.241
20
101.000
0
VERTEX
8
CUT
10
23.482
20
101.000
0
VERTEX
8
CUT
10
23.482
20
98.000
0
VERTEX
8
CUT
10
30.722
20
98.000
0
VERTEX
8
CUT
10
30.722
20
101.000
0
VERTEX
8
CUT
10
37.963
20
101.000
0
VERTEX
8
CUT
10
37.963
20
98.000
0
VERTEX
8
CUT
10
45.204
20
98.000
0
VERTEX
8
CUT
10
45.204
20
101.000
0
VERTEX
8
CUT
10
52.445
20
101.000
0
VERTEX
8
CUT
10
52.445
20
98.000
0
VERTEX
8
CUT
10
59.685
20
98.000
0
VERTEX
8
CUT
10
59.685
20
101.000
0
VERTEX
8
CUT
10
66.926
20
101.000
0
VERTEX
8
CUT
10
66.926
20
98.000
0
VERTEX
8
CUT
10
74.167
20
98.000
0
VERTEX
8
CUT
10
74.167
20
101.000
0
VERTEX
8
CUT
10
81.408
20
101.000
0
VERTEX
8
CUT
10
81.408
20
98.000
0
VERTEX
8
CUT
10
88.648
20
98.000
0
VERTEX
8
CUT
10
88.648
20
101.000
0
VERTEX
8
CUT
10
95.889
20
101.000
0
VERTEX
8
CUT
10
95.889
20
98.000
0
VERTEX
8
CUT
10
103.130
20
98.000
0
VERTEX
8
CUT
10
103.130
20
105.818
0
VERTEX
8
CUT
10
106.130
20
105.818
0
VERTEX
8
CUT
10
106.130
20
113.636
0
VERTEX
8
CUT
10
103.130
20
113.636
0
VERTEX
8
CUT
10
103.130
20
121.455
0
VERTEX
8
CUT
10
106.130
20
121.455
0
VERTEX
8
CUT
10
106.130
20
129.273
0
VERTEX
8
CUT
10
103.130
20
129.273
0
VERTEX
8
CUT
10
103.130
20
137.091
0
VERTEX
8
CUT
10
106.130
20
137.091
0
VERTEX
8
CUT
10
106.130
20
144.909
0
VERTEX
8
CUT
10
103.130
20
144.909
0
VERTEX
8
CUT
10
103.130
20
152.727
0
VERTEX
8
CUT
10
106.130
20
152.727
0
VERTEX
8
CUT
10
106.130
20
160.545
0
VERTEX
8
CUT
10
103.130
20
160.545
0
VERTEX
8
CUT
10
103.130
20
168.364
0
VERTEX
8
CUT
10
106.130
20
168.364
0
VERTEX
8
CUT
10
106.130
20
176.182
0
VERTEX
8
CUT
10
103.130
20
176.182
0
VERTEX
8
CUT
10
103.130
20
184.000
0
VERTEX
8
CUT
10
9.000
20
184.000
0
VERTEX
8
CUT
10
9.000
20
176.182
0
VERTEX
8
CUT
10
6.000
20
176.182
0
VERTEX
8
CUT
10
6.000
20
168.364
0
VERTEX
8
CUT
10
9.000
20
168.364
0
VERTEX
8
CUT
10
9.000
20
160.545
0
VERTEX
8
CUT
10
6.000
20
160.545
0
VERTEX
8
CUT
10
6.000
20
152.727
0
VERTEX
8
CUT
10
9.000
20
152.727
0
VERTEX
8
CUT
10
9.000
20
144.909
0
VERTEX
8
CUT
10
6.000
20
144.909
0
VERTEX
8
CUT
10
6.000
20
137.091
0
VERTEX
8
CUT
10
9.000
20
137.091
0
VERTEX
8
CUT
10
9.000
20
129.273
0
VERTEX
8
CUT
10
6.000
20
129.273
0
VERTEX
8
CUT
10
6.000
20
121.455
0
VERTEX
8
CUT
10
9.000
20
121.455
0
VERTEX
8
CUT
10
9.000
20
113.636
0
VERTEX
8
CUT
10
6.000
20
113.636
0
VERTEX
8
CUT
10
6.000
20
105.818
0
VERTEX
8
CUT
10
9.000
20
105.818
0
SEQEND
0
POLYLINE
8
CUT
66
1
70
1
0
VERTEX
8
CUT
10
115.130
20
101.000
0
VERTEX
8
CUT
10
122.140
20
101.000
0
VERTEX
8
CUT
10
122.140
20
98.000
0
VERTEX
8
CUT
10
129.151
20
98.000
0
VERTEX
8
CUT
10
129.151
20
101.000
0
VERTEX
8
CUT
10
136.161
20
101.000
0
VERTEX
8
CUT
10
136.161
20
98.000
0
VERTEX
8
CUT
10
143.172
20
98.000
0
VERTEX
8
CUT
10
143.172
20
101.000
0
VERTEX
8
CUT
10
150.182
20
101.000
0
VERTEX
8
CUT
10
150.182
20
98.000
0
VERTEX
8
CUT
10
157.193
20
98.000
0
VERTEX
8
CUT
10
157.193
20
101.000
0
VERTEX
8
CUT
10
164.203
20
101.000
0
VERTEX
8
CUT
10
164.203
20
98.000
0
VERTEX
8
CUT
10
171.214
20
98.000
0
VERTEX
8
CUT
10
171.214
20
101.000
0
VERTEX
8
CUT
10
178.224
20
101.000
0
VERTEX
8
CUT
10
178.224
20
98.000
0
VERTEX
8
CUT
10
185.235
20
98.000
0
VERTEX
8
CUT
10
185.235
20
101.000
0
VERTEX
8
CUT
10
192.245
20
101.000
0
VERTEX
8
CUT
10
192.245
20
98.000
0
VERTEX
8
CUT
10
199.256
20
98.000
0
VERTEX
8
CUT
10
199.256
20
101.000
0
VERTEX
8
CUT
10
206.266
20
101.000
0
VERTEX
8
CUT
10
206.266
20
98.000
0
VERTEX
8
CUT
10
213.277
20
98.000
0
VERTEX
8
CUT
10
213.277
20
101.000
0
VERTEX
8
CUT
10
220.287
20
101.000
0
VERTEX
8
CUT
10
220.287
20
108.241
0
VERTEX
8
CUT
10
223.287
20
108.241
0
VERTEX
8
CUT
10
223.287
20
115.482
0
VERTEX
8
CUT
10
220.287
20
115.482
0
VERTEX
8
CUT
10
220.287
20
122.722
0
VERTEX
8
CUT
10
223.287
20
122.722
0
VERTEX
8
CUT
10
223.287
20
129.963
0
VERTEX
8
CUT
10
220.287
20
129.963
0
VERTEX
8
CUT
10
220.287
20
137.204
0
VERTEX
8
CUT
10
223.287
20
137.204
0
VERTEX
8
CUT
10
223.287
20
144.445
0
VERTEX
8
CUT
10
220.287
20
144.445
0
VERTEX
8
CUT
10
220.287
20
151.685
0
VERTEX
8
CUT
10
223.287
20
151.685
0
VERTEX
8
CUT
10
223.287
20
158.926
0
VERTEX
8
CUT
10
220.287
20
158.926
0
VERTEX
8
CUT
10
220.287
20
166.167
0
VERTEX
8
CUT
10
223.287
20
166.167
0
VERTEX
8
CUT
10
223.287
20
173.408
0
VERTEX
8
CUT
10
220.287
20
173.408
0
VERTEX
8
CUT
10
220.287
20
180.648
0
VERTEX
8
CUT
10
223.287
20
180.648
0
VERTEX
8
CUT
10
223.287
20
187.889
0
VERTEX
8
CUT
10
220.287
20
187.889
0
VERTEX
8
CUT
10
220.287
20
195.130
0
VERTEX
8
CUT
10
213.277
20
195.130
0
VERTEX
8
CUT
10
213.277
20
198.130
0
VERTEX
8
CUT
10
206.266
20
198.130
0
VERTEX
8
CUT
10
206.266
20
195.130
0
VERTEX
8
CUT
10
199.256
20
195.130
0
VERTEX
8
CUT
10
199.256
20
198.130
0
VERTEX
8
CUT
10
192.245
20
198.130
0
VERTEX
8
CUT
10
192.245
20
195.130
0
VERTEX
8
CUT
10
185.235
20
195.130
0
VERTEX
8
CUT
10
185.235
20
198.130
0
VERTEX
8
CUT
10
178.224
20
198.130
0
VERTEX
8
CUT
10
178.224
20
195.130
0
VERTEX
8
CUT
10
171.214
20
195.130
0
VERTEX
8
CUT
10
171.214
20
198.130
0
VERTEX
8
CUT
10
164.203
20
198.130
0
VERTEX
8
CUT
10
164.203
20
195.130
0
VERTEX
8
CUT
10
157.193
20
195.130
0
VERTEX
8
CUT
10
157.193
20
198.130
0
VERTEX
8
CUT
10
150.182
20
198.130
0
VERTEX
8
CUT
10
150.182
20
195.130
0
VERTEX
8
CUT
10
143.172
20
195.130
0
VERTEX
8
CUT
10
143.172
20
198.130
0
VERTEX
8
CUT
10
136.161
20
198.130
0
VERTEX
8
CUT
10
136.161
20
195.130
0
VERTEX
8
CUT
10
129.151
20
195.130
0
VERTEX
8
CUT
10
129.151
20
198.130
0
VERTEX
8
CUT
10
122.140
20
198.130
0
VERTEX
8
CUT
10
122.140
20
195.130
0
VERTEX
8
CUT
10
115.130
20
195.130
0
VERTEX
8
CUT
10
115.130
20
187.889
0
VERTEX
8
CUT
10
112.130
20
187.889
0
VERTEX
8
CUT
10
112.130
20
180.648
0
VERTEX
8
CUT
10
115.130
20
180.648
0
VERTEX
8
CUT
10
115.130
20
173.408
0
VERTEX
8
CUT
10
112.130
20
173.408
0
VERTEX
8
CUT
10
112.130
20
166.167
0
VERTEX
8
CUT
10
115.130
20
166.167
0
VERTEX
8
CUT
10
115.130
20
158.926
0
VERTEX
8
CUT
10
112.130
20
158.926
0
VERTEX
8
CUT
10
112.130
20
151.685
0
VERTEX
8
CUT
10
115.130
20
151.685
0
VERTEX
8
CUT
10
115.130
20
144.445
0
VERTEX
8
CUT
10
112.130
20
144.445
0
VERTEX
8
CUT
10
112.130
20
137.204
0
VERTEX
8
CUT
10
115.130
20
137.204
0
VERTEX
8
CUT
10
115.130
20
129.963
0
VERTEX
8
CUT
10
112.130
20
129.963
0
VERTEX
8
CUT
10
112.130
20
122.722
0
VERTEX
8
CUT
10
115.130
20
122.722
0
VERTEX
8
CUT
10
115.130
20
115.482
0
VERTEX
8
CUT
10
112.130
20
115.482
0
VERTEX
8
CUT
10
112.130
20
108.241
0
VERTEX
8
CUT
10
115.130
20
108.241
0
SEQEND
0
ENDSEC
0
EOF